<?xml version="1.0" encoding="utf-8"?>
<!-- Generator: Adobe Illustrator 22.1.0, SVG Export Plug-In . SVG Version: 6.00 Build 0)  -->
<svg version="1.1" id="Capa_1" xmlns="http://www.w3.org/2000/svg" xmlns:xlink="http://www.w3.org/1999/xlink" x="0px" y="0px"
	 viewBox="0 0 512 512" style="enable-background:new 0 0 512 512;" xml:space="preserve">
<style type="text/css">
	.st0{fill:#87CED9;}
	.st1{fill:#7DC6D1;}
	.st2{fill:#4398D1;}
	.st3{fill:#3B86B8;}
	.st4{fill:#3077A6;}
</style>
<path class="st0" d="M364.1,91H147.9c-12.6,0-22.8,10.2-22.8,22.8v136.5h261.7V113.8C386.8,101.2,376.7,91,364.1,91z"/>
<path class="st1" d="M364.1,91h-30.3L174.5,250.3h212.4V113.8C386.8,101.2,376.7,91,364.1,91z"/>
<g>
	<polygon class="st2" points="288.5,324.3 278.8,290.1 233.2,290.1 223.5,324.3 199.1,324.3 199.1,335.6 312.9,335.6 312.9,324.3 	
		"/>
	<path class="st2" d="M125.2,267.4c0,12.6,10.2,22.8,22.8,22.8h216.2c12.6,0,22.8-10.2,22.8-22.8v-17.1H125.2V267.4z"/>
	<rect x="142.2" y="352.7" class="st2" width="159.3" height="68.3"/>
	<path class="st2" d="M347,352.7L347,352.7c12.6,0,22.8,10.2,22.8,22.8v22.8c0,12.6-10.2,22.8-22.8,22.8l0,0
		c-12.6,0-22.8-10.2-22.8-22.8v-22.8C324.3,362.9,334.5,352.7,347,352.7z"/>
</g>
<g>
	<rect x="159.3" y="392.5" class="st3" width="11.4" height="11.4"/>
	<rect x="159.3" y="369.8" class="st3" width="11.4" height="11.4"/>
	<rect x="182" y="369.8" class="st3" width="11.4" height="11.4"/>
	<rect x="204.8" y="369.8" class="st3" width="11.4" height="11.4"/>
	<rect x="250.3" y="369.8" class="st3" width="11.4" height="11.4"/>
	<rect x="227.6" y="369.8" class="st3" width="11.4" height="11.4"/>
	<rect x="273.1" y="392.5" class="st3" width="11.4" height="11.4"/>
	<rect x="273.1" y="369.8" class="st3" width="11.4" height="11.4"/>
	<rect x="182" y="392.5" class="st3" width="79.6" height="11.4"/>
	<rect x="341.3" y="369.8" class="st3" width="11.4" height="11.4"/>
</g>
<g>
	
		<rect x="214.6" y="170.8" transform="matrix(0.2751 -0.9614 0.9614 0.2751 15.9112 374.0097)" class="st4" width="82.8" height="11.4"/>
	<path class="st4" d="M218.2,209.2l-34.1-28.4c-2.4-2-2.7-5.6-0.7-8c0.2-0.3,0.5-0.5,0.7-0.7l34.1-28.4l7.3,8.7l-28.9,24.1
		l28.9,24.1L218.2,209.2z"/>
	<path class="st4" d="M293.8,209.2l-7.3-8.7l28.9-24.1l-28.9-24.1l7.3-8.7l34.1,28.4c2.4,2,2.7,5.6,0.7,8c-0.2,0.3-0.5,0.5-0.7,0.7
		L293.8,209.2z"/>
</g>
<polygon class="st3" points="282,301.5 278.8,290.1 233.2,290.1 230,301.5 "/>
<path d="M392.5,267.4V113.8c0-15.7-12.7-28.4-28.4-28.4H147.9c-15.7,0-28.4,12.7-28.4,28.4v153.6c0,15.7,12.7,28.4,28.4,28.4h77.8
	l-8.1,28.4h-18.5v11.4h113.8v-11.4h-18.5l-8.1-28.4h77.8C379.8,295.8,392.5,283.1,392.5,267.4z M147.9,96.7h216.2
	c9.4,0,17.1,7.6,17.1,17.1v130.8H130.8V113.8C130.8,104.4,138.5,96.7,147.9,96.7z M282.6,324.3h-53.2l8.1-28.4h36.9L282.6,324.3z
	 M364.1,284.4H147.9c-9.4,0-17.1-7.6-17.1-17.1V256h250.3v11.4C381.2,276.8,373.5,284.4,364.1,284.4z"/>
<path d="M142.2,347c-3.1,0-5.7,2.5-5.7,5.7V421c0,3.1,2.5,5.7,5.7,5.7h159.3c3.1,0,5.7-2.5,5.7-5.7v-68.3c0-3.1-2.5-5.7-5.7-5.7
	H142.2z M295.8,415.3H147.9v-56.9h147.9L295.8,415.3L295.8,415.3z"/>
<rect x="159.3" y="392.5" width="11.4" height="11.4"/>
<rect x="159.3" y="369.8" width="11.4" height="11.4"/>
<rect x="182" y="369.8" width="11.4" height="11.4"/>
<rect x="204.8" y="369.8" width="11.4" height="11.4"/>
<rect x="250.3" y="369.8" width="11.4" height="11.4"/>
<rect x="227.6" y="369.8" width="11.4" height="11.4"/>
<rect x="273.1" y="392.5" width="11.4" height="11.4"/>
<rect x="273.1" y="369.8" width="11.4" height="11.4"/>
<rect x="182" y="392.5" width="79.6" height="11.4"/>
<path d="M318.6,375.5v22.8c0,15.7,12.7,28.4,28.4,28.4c15.7,0,28.4-12.7,28.4-28.4v-22.8c0-15.7-12.7-28.4-28.4-28.4
	C331.3,347,318.6,359.8,318.6,375.5z M364.1,375.5v22.8c0,9.4-7.6,17.1-17.1,17.1s-17.1-7.6-17.1-17.1v-22.8
	c0-9.4,7.6-17.1,17.1-17.1S364.1,366,364.1,375.5z"/>
<rect x="341.3" y="369.8" width="11.4" height="11.4"/>
<rect x="214.6" y="170.8" transform="matrix(0.2751 -0.9614 0.9614 0.2751 15.9112 374.0097)" width="82.8" height="11.4"/>
<path d="M218.2,209.2l7.3-8.7l-28.9-24.1l28.9-24.1l-7.3-8.7L184.1,172c-2.4,2-2.7,5.6-0.7,8c0.2,0.3,0.5,0.5,0.7,0.7L218.2,209.2z"
	/>
<path d="M293.8,209.2l34.1-28.4c2.4-2,2.7-5.6,0.7-8c-0.2-0.3-0.5-0.5-0.7-0.7l-34.1-28.4l-7.3,8.7l28.9,24.1l-28.9,24.1
	L293.8,209.2z"/>
</svg>
