<?xml version="1.0" encoding="utf-8"?>
<!-- Generator: Adobe Illustrator 22.1.0, SVG Export Plug-In . SVG Version: 6.00 Build 0)  -->
<svg version="1.1" id="图层_1" xmlns="http://www.w3.org/2000/svg" xmlns:xlink="http://www.w3.org/1999/xlink" x="0px" y="0px"
	 viewBox="0 0 512 512" style="enable-background:new 0 0 512 512;" xml:space="preserve">
<style type="text/css">
	.st0{fill:#636363;}
	.st1{fill:#494949;}
	.st2{fill:#FFD664;}
	.st3{fill:#F9C646;}
</style>
<path class="st0" d="M72.6,229.9l183.4,82l183.4-82l-183.4-82L72.6,229.9z"/>
<path class="st1" d="M439.4,229.9l-183.4-82c0,0-12.9,5.8-15.3,6.8c20.5,9.2,115.5,51.6,152.9,68.4c5.9,2.6,5.9,11,0,13.6l-16.1,7.2
	l-0.8-0.6c-53.1-39.4-117.6-41.6-120.3-41.7l-0.4,0l-0.4,0c-2.7,0.1-67.2,2.3-120.3,41.7l-6,4.5v7.5
	c42.3,18.9,126.7,56.7,126.7,56.7l126.7-56.7L439.4,229.9z"/>
<path class="st0" d="M256,364.1c37.5-21.4,111.8-24.6,111.8-24.6v-84.3c-50-37-111.8-38.8-111.8-38.8s-61.9,1.7-111.8,38.8v84.2
	C144.2,339.5,218.5,342.7,256,364.1z"/>
<path class="st1" d="M345.5,312.4c0,7.5-5.5,13.8-12.9,14.8c-22,2.9-49.8,8.3-70.1,17.9c-4.1,1.9-8.8,1.9-12.8,0
	c-39-18.4-105.4-21.3-105.4-21.3v15.7c0,0,74.3,3.2,111.8,24.6c37.5-21.4,111.8-24.6,111.8-24.6v-84.3c-7.3-5.4-14.8-10-22.4-14
	V312.4z"/>
<path class="st2" d="M341.7,311.2c0,7.8-6.3,14.2-14.2,14.2c-7.8,0-14.2-6.3-14.2-14.2c0-7.8,6.3-14.2,14.2-14.2
	C335.4,297,341.7,303.4,341.7,311.2z"/>
<path class="st3" d="M333.4,298.3c0.8,1.8,1.3,3.7,1.3,5.8c0,7.8-6.3,14.2-14.2,14.2c-2.1,0-4-0.5-5.8-1.3c2.2,4.9,7.2,8.3,12.9,8.3
	c7.8,0,14.2-6.3,14.2-14.2C341.7,305.4,338.3,300.5,333.4,298.3z"/>
<path class="st2" d="M341.7,362.6l-14.2-37.3l-14.2,37.3H341.7z"/>
<path d="M441.7,224.8l-183.4-82c-1.5-0.7-3.1-0.7-4.6,0L179.4,176c-2.8,1.3-4.1,4.6-2.8,7.4c1.3,2.8,4.6,4.1,7.4,2.8L256,154
	l66,29.5v41.2c-35-12.8-64.5-13.8-65.8-13.8c-0.1,0-0.2,0-0.3,0c-1.4,0-35.2,1.2-73.5,16.8c-15.3,6.2-29.2,14-41.5,23.1
	c-0.9,0.7-1.6,1.6-1.9,2.7l-52.6-23.5l73.7-33c2.8-1.3,4.1-4.6,2.8-7.4c-1.3-2.8-4.6-4.1-7.4-2.8l-85.2,38.1c-2,0.9-3.3,2.9-3.3,5.1
	c0,2.2,1.3,4.2,3.3,5.1l68.3,30.5v26.8c0,3.1,2.5,5.6,5.6,5.6c3.1,0,5.6-2.5,5.6-5.6V262c0,0,0,0,0,0v-3.9
	c10.9-7.8,23.3-14.6,36.8-20.1c35-14.3,67-15.9,69.5-16c2.4,0.1,32.3,1.5,66,14.6v55.6c-8.2,2.4-14.2,10-14.2,18.9
	c0,8.2,5.1,15.3,12.2,18.3l-3.9,10.3c-25.5,4.4-45.7,10.4-60.1,18c-33.2-17.4-88.7-22.4-106.2-23.5v-15.7c0-3.1-2.5-5.6-5.6-5.6
	c-3.1,0-5.6,2.5-5.6,5.6v21c0,3,2.4,5.5,5.3,5.6c0.7,0,73.4,3.4,109.3,23.9c0.9,0.5,1.8,0.7,2.8,0.7c1,0,1.9-0.2,2.8-0.7
	c12.1-6.9,30.2-12.7,52.7-17l-3.3,8.7c-0.7,1.7-0.4,3.6,0.6,5.2c1,1.5,2.8,2.4,4.6,2.4h28.3c1.8,0,3.6-0.9,4.6-2.4
	c1-1.5,1.3-3.4,0.6-5.2l-5.1-13.3c15.2-1.7,26-2.2,26.2-2.2c3-0.1,5.3-2.6,5.3-5.6v-21c0-3.1-2.5-5.6-5.6-5.6
	c-3.1,0-5.6,2.5-5.6,5.6v15.7c-5.2,0.4-13.9,1-24.4,2.3l-2.7-7.1c7.2-3,12.2-10,12.2-18.3c0-9-6-16.5-14.2-18.9v-50.8
	c10.5,4.8,20.3,10.4,29.1,16.7v3.9v0v30.3c0,3.1,2.5,5.6,5.6,5.6s5.6-2.5,5.6-5.6v-26.8l68.3-30.5c2-0.9,3.3-2.9,3.3-5.1
	C445,227.7,443.7,225.7,441.7,224.8z M321.5,357l6.1-15.9l6.1,15.9H321.5z M336.1,311.2c0,4.7-3.8,8.6-8.6,8.6
	c-4.7,0-8.6-3.8-8.6-8.6c0-4.7,3.8-8.6,8.6-8.6C332.3,302.6,336.1,306.4,336.1,311.2z M373.1,253.4c-0.4-1-1-2-1.9-2.7
	c-11.3-8.4-24.1-15.6-38-21.6v-40.6l92.5,41.4L373.1,253.4z"/>
</svg>
