<?xml version="1.0" encoding="utf-8"?>
<!-- Generator: Adobe Illustrator 22.1.0, SVG Export Plug-In . SVG Version: 6.00 Build 0)  -->
<svg version="1.1" id="图层_1" xmlns="http://www.w3.org/2000/svg" xmlns:xlink="http://www.w3.org/1999/xlink" x="0px" y="0px"
	 viewBox="0 0 512 511" style="enable-background:new 0 0 512 511;" xml:space="preserve">
<style type="text/css">
	.st0{fill:#FFFFFF;}
	.st1{fill:#72D8FF;}
</style>
<path class="st0" d="M113.8,138.4v236.1c0,7,5.6,12.6,12.6,12.6h259.3c7,0,12.6-5.6,12.6-12.6V138.4c0-7-5.6-12.6-12.6-12.6H126.4
	C119.4,125.9,113.8,131.5,113.8,138.4z"/>
<path class="st1" d="M126.4,125.9h259.3c7,0,12.6,5.6,12.6,12.6v42.8H113.8v-42.8C113.8,131.5,119.4,125.9,126.4,125.9z"/>
<path d="M146.9,147.7L146.9,147.7c-3.2,0-5.9,2.6-5.9,5.8c0,3.2,2.6,5.8,5.8,5.8h0.1c3.2,0,5.8-2.6,5.8-5.8
	C152.7,150.3,150,147.7,146.9,147.7z"/>
<path d="M175.5,147.7L175.5,147.7c-3.2,0-5.9,2.6-5.9,5.8c0,3.2,2.6,5.8,5.8,5.8h0.1c3.2,0,5.8-2.6,5.8-5.8
	C181.2,150.3,178.7,147.7,175.5,147.7z"/>
<path d="M204.1,147.7L204.1,147.7c-3.2,0-5.9,2.6-5.9,5.8c0,3.2,2.6,5.8,5.8,5.8h0.1c3.2,0,5.8-2.6,5.8-5.8
	C209.9,150.3,207.3,147.7,204.1,147.7z"/>
<path d="M364.9,147.7H253.4c-3.2,0-5.8,2.6-5.8,5.8c0,3.2,2.6,5.8,5.8,5.8h111.5c3.2,0,5.8-2.6,5.8-5.8
	C370.7,150.3,368,147.7,364.9,147.7z"/>
<path d="M260,381.4c-1.5,0-3,0.6-4.1,1.7c-1.1,1.1-1.7,2.6-1.7,4.1s0.6,3,1.7,4.1c1.1,1.1,2.6,1.7,4.1,1.7s3-0.6,4.1-1.7
	c1.1-1.1,1.7-2.6,1.7-4.1s-0.6-3-1.7-4.1C263,382,261.5,381.4,260,381.4z"/>
<path d="M385.6,120.1H126.4c-10.1,0-18.4,8.3-18.4,18.4v236.1c0,10.1,8.3,18.4,18.4,18.4h109.4c3.2,0,5.8-2.6,5.8-5.8
	s-2.6-5.8-5.8-5.8H126.4c-3.7,0-6.8-3.1-6.8-6.8V187h272.9v187.6c0,3.7-3.1,6.8-6.8,6.8H283.6c-3.2,0-5.8,2.6-5.8,5.8
	s2.6,5.8,5.8,5.8h102.1c10.1,0,18.4-8.3,18.4-18.4V138.4C404,128.3,395.7,120.1,385.6,120.1z M119.6,175.4v-37
	c0-3.7,3.1-6.8,6.8-6.8h259.3c3.7,0,6.8,3.1,6.8,6.8v37H119.6L119.6,175.4z"/>
<path d="M210.9,253c0-11.5-9.4-20.8-20.8-20.8h-19.5c-3.2,0-5.8,2.6-5.8,5.8v60.1c0,3.2,2.6,5.8,5.8,5.8h19.5
	c11.5,0,20.8-9.4,20.8-20.8c0-5.9-2.5-11.2-6.5-15.1C208.5,264.2,210.9,259,210.9,253z M199.4,283.1c0,5.1-4.2,9.3-9.3,9.3h-13.7
	v-18.5h13.7C195.2,273.9,199.4,278,199.4,283.1z M176.5,262.3v-18.5h13.7c5.1,0,9.3,4.2,9.3,9.3s-4.2,9.3-9.3,9.3H176.5z"/>
<path d="M227.5,232.2c-3.2,0-5.8,2.6-5.8,5.8v46.8c0,10.5,8.6,19.1,19.1,19.1c3.2,0,5.8-2.6,5.8-5.8c0-3.2-2.6-5.8-5.8-5.8
	c-4.2,0-7.6-3.4-7.6-7.6V238C233.3,234.8,230.7,232.2,227.5,232.2z"/>
<path d="M295.8,283c0-11.6-9.4-20.9-20.9-20.9c-11.6,0-20.9,9.4-20.9,20.9s9.4,20.9,20.9,20.9C286.5,303.9,295.8,294.5,295.8,283z
	 M265.5,283c0-5.2,4.2-9.4,9.4-9.4c5.2,0,9.4,4.2,9.4,9.4s-4.2,9.4-9.4,9.4C269.7,292.3,265.5,288.1,265.5,283z"/>
<path d="M326.2,320.1c-5.2,0-9.4-4.2-9.4-9.4c0-3.2-2.6-5.8-5.8-5.8s-5.8,2.6-5.8,5.8c0,11.6,9.4,20.9,20.9,20.9
	c11.6,0,20.9-9.4,20.9-20.9V283c0-11.6-9.4-20.9-20.9-20.9c-11.6,0-20.9,9.4-20.9,20.9c0,11.6,9.4,20.9,20.9,20.9
	c3.4,0,6.5-0.8,9.4-2.2v9C335.5,315.9,331.4,320.1,326.2,320.1z M326.2,292.3c-5.2,0-9.4-4.2-9.4-9.4s4.2-9.4,9.4-9.4
	s9.4,4.2,9.4,9.4S331.4,292.3,326.2,292.3z"/>
<path d="M170.7,360.5h170.7c3.2,0,5.8-2.6,5.8-5.8c0-3.2-2.6-5.8-5.8-5.8H170.7c-3.2,0-5.8,2.6-5.8,5.8
	C164.9,358,167.5,360.5,170.7,360.5z"/>
</svg>
